<svg xmlns="http://www.w3.org/2000/svg" version="1.1" xmlns:xlink="http://www.w3.org/1999/xlink" xmlns:svgjs="http://svgjs.com/svgjs" width="512" height="512" x="0" y="0" viewBox="0 0 512.075 512.075" style="enable-background:new 0 0 512 512" xml:space="preserve" class=""><g><g xmlns="http://www.w3.org/2000/svg"><path d="m149.934 480.744-58.511 19.504c-26.106 8.701-53.905-.989-69.358-22.428-11.496-15.949-14.639-36.635-8.407-55.334l19.121-57.359c-45.124-92.12-29.997-206.915 47.46-284.537 97.722-97.929 255.874-97.151 352.659.918 95.276 96.539 96.644 253.594-2.621 351.347-77.685 76.504-190.271 90.513-280.343 47.889z" fill="#fbcfe8" data-original="#fbf1cf" style="" class=""></path><path d="m149.934 480.744-58.511 19.504c-26.106 8.701-53.905-.989-69.358-22.428-11.496-15.949-14.639-36.635-8.407-55.334l19.121-57.359c-45.124-92.12-29.997-206.915 47.46-284.537 97.722-97.929 255.874-97.151 352.659.918 95.276 96.539 96.644 253.594-2.621 351.347-77.685 76.504-190.271 90.513-280.343 47.889z" fill="#fbcfe8" data-original="#fbf1cf" style="" class=""></path><path d="m159.013 27.282c-28.6 12.148-55.415 29.901-78.773 53.308-77.458 77.622-92.584 192.418-47.46 284.537l-19.121 57.359c-6.232 18.699-3.089 39.385 8.407 55.334 15.453 21.439 43.252 31.128 69.358 22.428l58.511-19.504c85.665 40.538 191.691 29.844 268.694-37.113-325.78-51.985-294.367-352.155-259.616-416.349z" fill="#f2bdfa" data-original="#fae0bd" style="" class=""></path><path d="m256.051 50.974c-113.256-.001-205.3 92.248-205.058 205.504.07 32.927 7.909 64.027 21.772 91.576 4.375 8.695 5.213 18.743 2.135 27.977l-20.06 60.18c-4.709 14.127 8.731 27.567 22.858 22.858l61.281-20.427c9.064-3.021 18.923-2.275 27.515 1.903 26.011 12.649 55.096 19.962 85.834 20.509 113.182 2.016 207.271-89.07 208.762-202.26 1.506-114.515-90.87-207.819-205.039-207.82z" fill="#78be6f" data-original="#89d47f" style="" class=""></path><path d="m174.185 68.04c-72.58 31.725-123.372 104.275-123.192 188.438.07 32.927 7.909 64.027 21.772 91.577 4.375 8.695 5.213 18.743 2.135 27.977l-20.06 60.18c-4.709 14.127 8.731 27.567 22.858 22.858l61.281-20.427c9.064-3.021 18.923-2.275 27.515 1.903 26.011 12.649 55.096 19.962 85.834 20.509 52.978.944 101.771-18.513 138.844-51.084-181.217-38.88-244.877-255.619-216.987-341.931z" fill="#38b865" data-original="#5ec783" style="" class=""></path><path d="m186.359 325.721c16.85 16.85 35.099 30.38 55.366 40.889 41.396 21.465 91.665 15.805 127.387-14.167 13.13-11.016 13.999-30.916 1.88-43.035l-20.596-20.596c-9.217-9.217-23.424-11.212-34.823-4.891l-28.066 15.564c-7.714 4.278-17.173 4.075-24.62-.652-9.694-6.153-18.716-13.498-27.429-22.211s-16.058-17.735-22.21-27.428c-4.727-7.447-4.93-16.906-.652-24.62l15.564-28.066c6.321-11.399 4.326-25.606-4.891-34.823l-20.596-20.596c-12.119-12.119-32.019-11.25-43.035 1.88-29.972 35.722-35.632 85.991-14.167 127.387 10.508 20.266 24.038 38.515 40.888 55.365z" fill="#fbcfe8" data-original="#fbf1cf" style="" class=""></path><path d="m402.265 447.338c-71.95 55.3-168.429 64.811-249.123 26.627-1.746-.827-3.746-.946-5.58-.336l-58.51 19.504c-22.527 7.506-46.999-.41-60.902-19.698-10.091-13.999-12.848-32.159-7.376-48.577l19.121-57.359c.622-1.867.485-3.903-.38-5.671-44.446-90.738-28.078-201.671 46.034-275.94 9.393-9.414 19.58-18.085 30.279-25.773 3.363-2.417 4.131-7.104 1.714-10.467-2.418-3.364-7.104-4.131-10.468-1.714-11.359 8.163-22.174 17.368-32.143 27.359-78.097 78.263-95.688 194.678-50.229 290.352l-18.158 54.47c-6.992 20.979-3.464 44.191 9.438 62.091 17.818 24.719 49.117 34.721 77.813 25.157l55.678-18.561c83.039 38.089 184.458 29.976 261.933-29.573 3.284-2.524 3.9-7.233 1.376-10.517-2.523-3.282-7.231-3.899-10.517-1.374zm35.971-371.098c-81.908-82.996-204.383-97.062-299.81-47.565-3.677 1.907-5.111 6.434-3.204 10.111 1.906 3.677 6.435 5.111 10.11 3.205 89.768-46.562 205.074-33.392 282.228 44.785 91.466 92.679 93.793 242.796.308 337.88-2.904 2.954-2.864 7.702.09 10.606 2.953 2.904 7.703 2.863 10.605-.09 99.298-100.993 96.834-260.485-.327-358.932zm-199.964 297.028c44.333 22.987 97.563 16.884 135.661-15.079 16.485-13.833 17.576-38.869 2.362-54.083l-20.597-20.596c-11.521-11.521-29.515-14.048-43.764-6.147l-28.066 15.564c-5.362 2.975-11.863 2.813-16.963-.425-18.168-11.531-35.772-29.123-47.327-47.326-3.236-5.1-3.399-11.6-.426-16.964l15.564-28.066c7.901-14.247 5.374-32.243-6.146-43.764l-20.596-20.596c-15.218-15.217-40.254-14.122-54.083 2.362-32.072 38.225-37.991 91.475-15.08 135.661 21.19 40.864 57.131 77.509 99.461 99.459zm-72.889-225.478c8.275-9.865 23.059-10.321 31.985-1.397l20.596 20.596c6.813 6.813 8.308 17.457 3.636 25.883l-15.565 28.066c-5.639 10.169-5.302 22.537.88 32.277 12.718 20.036 31.878 39.209 51.952 51.952 9.739 6.182 22.106 6.519 32.277.879l28.066-15.564c8.425-4.673 19.068-3.179 25.881 3.635l20.597 20.596c8.945 8.945 8.448 23.724-1.397 31.986-33.57 28.166-80.325 33.368-119.115 13.254-38.157-19.786-72.552-53.523-93.048-93.049-20.113-38.791-14.911-85.546 13.255-119.114zm-117.659 286.05c-6.659 19.979 12.364 39.003 32.345 32.345l61.281-20.427c7.158-2.386 14.923-1.843 21.862 1.532 76.52 37.213 173.218 26.549 240.667-38.844 85.641-83.029 85.915-218.169 3.464-301.716-82.996-84.097-218.259-84.383-301.689-.777-67.483 67.628-79.01 167.136-39.59 245.472 3.541 7.039 4.152 14.935 1.719 22.234zm31.74-89.157c-36.707-72.953-25.802-165.389 36.81-228.135 78.073-78.239 203.74-76.952 280.394.719 76.503 77.519 76.524 203.091-3.228 280.41-61.945 60.058-151.542 71.199-223.665 36.124-10.492-5.102-22.269-5.906-33.167-2.273l-61.281 20.427c-8.247 2.748-16.139-5.065-13.37-13.371l20.06-60.18c3.702-11.114 2.796-23.09-2.553-33.721z" fill="#000000" data-original="#000000" style="" class=""></path></g></g></svg>